<svg width="93" height="310" viewBox="0 0 93 310" fill="none" xmlns="http://www.w3.org/2000/svg">
<g id="Imigongo">
<g id="upRightAngle">
<path id="Polygon 2" d="M66.0372 4.48233L20.1706 4.88261L20.3838 29.3109L66.0372 4.48233Z" fill="white"/>
<path id="Polygon 3" d="M51.9501 8.32806L25.0115 8.56315L25.126 21.6802L51.9501 8.32806Z" fill="#41A4F5"/>
</g>
<g id="downRightAngle">
<path id="Polygon 2_2" d="M66.2434 304.588L20.3797 304.187L20.5929 279.759L66.2434 304.588Z" fill="white"/>
<path id="Polygon 3_2" d="M52.1573 300.742L25.2204 300.507L25.3348 287.39L52.1573 300.742Z" fill="#41A4F5"/>
</g>
<g id="rightSide5">
<path id="Polygon 3_3" d="M17.9294 93.3825L73.9589 61.0339V125.731L17.9294 93.3825Z" fill="white"/>
<path id="Polygon 4" d="M31.3765 93.756L67.7957 72.7294V114.783L31.3765 93.756Z" fill="#41A4F5"/>
<path id="Polygon 5" d="M43.3294 93.3825L61.2588 83.0309V103.734L43.3294 93.3825Z" fill="white"/>
</g>
<g id="rightSide4">
<path id="Polygon 3_4" d="M17.9294 152.4L73.9589 120.052V184.749L17.9294 152.4Z" fill="white"/>
<path id="Polygon 4_2" d="M31.3765 152.774L67.7957 131.747V173.8L31.3765 152.774Z" fill="#41A4F5"/>
<path id="Polygon 5_2" d="M43.3294 152.4L61.2588 142.049V162.752L43.3294 152.4Z" fill="white"/>
</g>
<g id="rightSide3">
<path id="Polygon 3_5" d="M17.9294 212.165L73.9589 179.816V244.514L17.9294 212.165Z" fill="white"/>
<path id="Polygon 4_3" d="M31.3765 212.539L67.7957 191.512V233.565L31.3765 212.539Z" fill="#41A4F5"/>
<path id="Polygon 5_3" d="M43.3294 212.165L61.2588 201.813V222.517L43.3294 212.165Z" fill="white"/>
</g>
<g id="rightSide2">
<path id="Polygon 3_6" d="M20.3798 272.647L73.8768 240.298V304.996L20.3798 272.647Z" fill="white"/>
<path id="Polygon 4_4" d="M33.2191 273.021L67.9921 251.994V294.047L33.2191 273.021Z" fill="#41A4F5"/>
<path id="Polygon 5_4" d="M44.6318 272.647L61.7508 262.295V282.999L44.6318 272.647Z" fill="white"/>
</g>
<g id="rightSide1">
<path id="Polygon 3_7" d="M17.9294 37.353L73.9589 5.00438V69.7017L17.9294 37.353Z" fill="white"/>
<path id="Polygon 4_5" d="M31.3765 37.7265L67.7957 16.6999V58.7532L31.3765 37.7265Z" fill="#41A4F5"/>
<path id="Polygon 5_5" d="M43.3294 37.353L61.2588 27.0014V47.7046L43.3294 37.353Z" fill="white"/>
</g>
<g id="leftSide4">
<path id="Polygon 3_8" d="M67.2354 65.7413L16.8088 98.0899L16.8088 33.3926L67.2354 65.7413Z" fill="#41A4F5"/>
<path id="Polygon 4_6" d="M55.1331 65.3677L22.3558 86.3944L22.3558 44.3411L55.1331 65.3677Z" fill="white"/>
<path id="Polygon 5_6" d="M44.3754 65.7413L28.2389 76.0928L28.2389 55.3897L44.3754 65.7413Z" fill="#41A4F5"/>
</g>
<g id="leftSide3">
<path id="Polygon 3_9" d="M67.2354 122.518L16.8088 154.866L16.8088 90.1692L67.2354 122.518Z" fill="#41A4F5"/>
<path id="Polygon 4_7" d="M55.1331 122.144L22.3558 143.171L22.3558 101.118L55.1331 122.144Z" fill="white"/>
<path id="Polygon 5_7" d="M44.3754 122.518L28.2389 132.869L28.2389 112.166L44.3754 122.518Z" fill="#41A4F5"/>
</g>
<g id="leftSide2">
<path id="Polygon 3_10" d="M67.2354 183.777L16.8088 216.125L16.8088 151.428L67.2354 183.777Z" fill="#41A4F5"/>
<path id="Polygon 4_8" d="M55.1331 183.403L22.3558 204.43L22.3558 162.377L55.1331 183.403Z" fill="white"/>
<path id="Polygon 5_8" d="M44.3754 183.777L28.2389 194.128L28.2389 173.425L44.3754 183.777Z" fill="#41A4F5"/>
</g>
<g id="leftSide1">
<path id="Polygon 3_11" d="M67.2354 242.047L16.8088 274.396L16.8088 209.699L67.2354 242.047Z" fill="#41A4F5"/>
<path id="Polygon 4_9" d="M55.1331 241.674L22.3558 262.701L22.3558 220.647L55.1331 241.674Z" fill="white"/>
<path id="Polygon 5_9" d="M44.3754 242.047L28.2389 252.399L28.2389 231.696L44.3754 242.047Z" fill="#41A4F5"/>
</g>
</g>
</svg>
